HIERARCHY
ROOT Hips
{
	OFFSET 0.000000 0.000000 0.000000
	CHANNELS 6 Xposition Yposition Zposition Zrotation Yrotation Xrotation 
	JOINT LHipJoint
	{
		OFFSET 0.000000 0.000000 0.000000
		CHANNELS 3 Zrotation Yrotation Xrotation
		JOINT LeftUpLeg
		{
			OFFSET 1.363060 -1.794630 0.839290
			CHANNELS 3 Zrotation Yrotation Xrotation
			JOINT LeftLeg
			{
				OFFSET 2.448110 -6.726130 0.000000
				CHANNELS 3 Zrotation Yrotation Xrotation
				JOINT LeftFoot
				{
					OFFSET 2.562200 -7.039590 0.000000
					CHANNELS 3 Zrotation Yrotation Xrotation
					JOINT LeftToeBase
					{
						OFFSET 0.157640 -0.433110 2.322550
						CHANNELS 3 Zrotation Yrotation Xrotation
						End Site
						{
							OFFSET 0.000000 0.000000 0.000000
						}
					}
				}
			}
		}
	}
	JOINT RHipJoint
	{
		OFFSET 0.000000 0.000000 0.000000
		CHANNELS 3 Zrotation Yrotation Xrotation
		JOINT RightUpLeg
		{
			OFFSET -1.305520 -1.794630 0.839290
			CHANNELS 3 Zrotation Yrotation Xrotation
			JOINT RightLeg
			{
				OFFSET -2.542530 -6.985550 0.000000
				CHANNELS 3 Zrotation Yrotation Xrotation
				JOINT RightFoot
				{
					OFFSET -2.568260 -7.056230 0.000000
					CHANNELS 3 Zrotation Yrotation Xrotation
					JOINT RightToeBase
					{
						OFFSET -0.164730 -0.452590 2.363150
						CHANNELS 3 Zrotation Yrotation Xrotation
						End Site
						{
							OFFSET 0.000000 0.000000 0.000000
						}
					}
				}
			}
		}
	}
	JOINT LowerBack
	{
		OFFSET 0.000000 0.000000 0.000000
		CHANNELS 3 Zrotation Yrotation Xrotation
		JOINT Spine
		{
			OFFSET 0.028270 2.035590 -0.193380
			CHANNELS 3 Zrotation Yrotation Xrotation
			JOINT Spine1
			{
				OFFSET 0.056720 2.048850 -0.042750
				CHANNELS 3 Zrotation Yrotation Xrotation
				JOINT Neck
				{
					OFFSET 0.000000 0.000000 0.000000
					CHANNELS 3 Zrotation Yrotation Xrotation
					JOINT Neck1
					{
						OFFSET -0.054170 1.746240 0.172020
						CHANNELS 3 Zrotation Yrotation Xrotation
						JOINT Head
						{
							OFFSET 0.104070 1.761360 -0.123970
							CHANNELS 3 Zrotation Yrotation Xrotation
							End Site
							{
								OFFSET 0.000000 0.000000 0.000000
							}
						}
					}
				}
				JOINT LeftShoulder
				{
					OFFSET 0.000000 0.000000 0.000000
					CHANNELS 3 Zrotation Yrotation Xrotation
					JOINT LeftArm
					{
						OFFSET 3.362410 1.200890 -0.311210
						CHANNELS 3 Zrotation Yrotation Xrotation
						JOINT LeftForeArm
						{
							OFFSET 4.983000 -0.000000 -0.000000
							CHANNELS 3 Zrotation Yrotation Xrotation
							JOINT LeftHand
							{
								OFFSET 3.483560 -0.000000 -0.000000
								CHANNELS 3 Zrotation Yrotation Xrotation
								JOINT LeftFingerBase
								{
									OFFSET 0.000000 0.000000 0.000000
									CHANNELS 3 Zrotation Yrotation Xrotation
									JOINT LeftHandIndex1
									{
										OFFSET 0.715260 -0.000000 -0.000000
										CHANNELS 3 Zrotation Yrotation Xrotation
										End Site
										{
											OFFSET 0.000000 0.000000 0.000000
										}
									}
								}
								JOINT LThumb
								{
									OFFSET 0.000000 0.000000 0.000000
									CHANNELS 3 Zrotation Yrotation Xrotation
									End Site
									{
										OFFSET 0.000000 0.000000 0.000000
									}
								}
							}
						}
					}
				}
				JOINT RightShoulder
				{
					OFFSET 0.000000 0.000000 0.000000
					CHANNELS 3 Zrotation Yrotation Xrotation
					JOINT RightArm
					{
						OFFSET -3.136600 1.374050 -0.404650
						CHANNELS 3 Zrotation Yrotation Xrotation
						JOINT RightForeArm
						{
							OFFSET -5.241900 -0.000000 -0.000000
							CHANNELS 3 Zrotation Yrotation Xrotation
							JOINT RightHand
							{
								OFFSET -3.444170 -0.000000 -0.000000
								CHANNELS 3 Zrotation Yrotation Xrotation
								JOINT RightFingerBase
								{
									OFFSET 0.000000 0.000000 0.000000
									CHANNELS 3 Zrotation Yrotation Xrotation
									JOINT RightHandIndex1
									{
										OFFSET -0.622530 -0.000000 -0.000000
										CHANNELS 3 Zrotation Yrotation Xrotation
										End Site
										{
											OFFSET 0.000000 0.000000 0.000000
										}
									}
								}
								JOINT RThumb
								{
									OFFSET 0.000000 0.000000 0.000000
									CHANNELS 3 Zrotation Yrotation Xrotation
									End Site
									{
										OFFSET 0.000000 0.000000 0.000000
									}
								}
							}
						}
					}
				}
			}
		}
	}
}
MOTION
Frames: 4
Frame Time: 0.033333
-1.679846 17.133700 23.791662 -0.735919 -12.211259 12.948885 -7.095103 7.870706 8.711607 -11.882412 -16.928812 -13.247679 24.506277 -22.188496 -33.702147 -4.393955 6.984438 75.104624 0.000000 0.000000 0.000000 8.884648 -13.638742 -2.688605 17.326465 19.994415 -17.642620 -12.290878 -12.584817 70.260309 11.749896 -5.504838 -16.219861 0.000000 0.000000 0.000000 -3.219643 3.356588 4.374440 -1.439610 2.456633 1.989257 5.943867 2.342020 -7.092279 5.259178 0.861611 -7.238564 3.338924 0.877717 -9.106838 0.000000 0.000000 0.000000 -2.690491 9.325525 17.650971 -80.272429 -5.228984 -22.668152 -145.545048 -73.523673 179.134266 9.608921 -8.485363 -0.447317 9.740514 -8.408641 0.000000 0.000000 0.000000 0.000000 0.000000 0.000000 0.000000 4.003799 -13.550641 5.449945 52.697700 6.787436 22.136611 23.485601 72.313200 0.418248 0.327323 10.880122 0.207570 0.319892 10.886074 0.000000 0.000000 0.000000 0.000000 0.000000 0.000000 0.000000 
-1.700235 17.154951 23.983327 -0.108046 -11.546906 12.384741 -5.239361 7.546107 7.495894 -15.478359 -16.555015 -10.678543 23.523507 -22.007624 -31.952943 -3.994419 5.897771 70.921774 0.000000 0.000000 0.000000 8.141343 -12.355444 -3.004997 16.674797 18.297022 -15.987331 -11.261859 -13.920956 68.933892 11.687965 -6.032665 -15.405309 0.000000 0.000000 0.000000 -3.746103 3.162462 5.226151 -1.464796 2.212525 1.416925 5.636766 2.086029 -6.456935 5.384707 0.905089 -7.162377 3.629015 0.918387 -9.134073 0.000000 0.000000 0.000000 -2.115497 8.912546 17.769693 -80.639902 -5.092174 -21.754577 -145.648038 -74.317620 179.110978 10.103545 -9.041429 -0.459909 10.245091 -8.957959 0.000000 0.000000 0.000000 0.000000 0.000000 0.000000 0.000000 2.897278 -13.663924 5.265949 54.508866 7.347535 21.277250 25.882694 71.060058 0.385432 0.502989 10.495951 0.191387 0.496517 10.501512 0.000000 0.000000 0.000000 0.000000 0.000000 0.000000 0.000000 
-1.718882 17.178790 24.173074 0.460631 -10.871938 11.837991 -3.680014 7.265802 6.354176 -18.540147 -16.026986 -8.437427 22.312010 -21.719505 -30.019570 -3.495156 4.945803 66.708032 0.000000 0.000000 0.000000 7.545168 -11.077066 -3.237888 15.880817 16.587016 -14.378373 -10.143501 -15.199281 67.468953 11.556246 -6.469452 -14.552384 0.000000 0.000000 0.000000 -4.181589 2.959311 5.992204 -1.448872 1.959105 1.000002 5.288663 1.838560 -5.977223 5.529056 0.929147 -7.093485 3.828941 0.938521 -9.064820 0.000000 0.000000 0.000000 -1.663477 8.569276 17.866723 -80.927622 -4.845986 -20.712715 -145.775076 -75.216930 179.095299 10.578368 -9.619933 -0.468722 10.730106 -9.529352 0.000000 0.000000 0.000000 0.000000 0.000000 0.000000 0.000000 1.855647 -13.828774 5.079020 56.177139 7.896432 20.382296 28.349019 69.724317 0.347508 0.650335 10.006709 0.172649 0.644616 10.011761 0.000000 0.000000 0.000000 0.000000 0.000000 0.000000 0.000000 
-1.734576 17.204698 24.360179 0.967654 -10.212516 11.345243 -2.429545 7.051704 5.322098 -21.046440 -15.426012 -6.589722 20.903446 -21.312398 -27.959039 -2.949769 4.142722 62.561121 0.000000 0.000000 0.000000 7.108811 -9.828072 -3.380246 14.945558 14.912965 -12.866951 -8.955055 -16.388394 65.900718 11.364179 -6.812333 -13.672520 0.000000 0.000000 0.000000 -4.533196 2.724104 6.652429 -1.379961 1.682161 0.621122 4.884827 1.588562 -5.544418 5.665132 0.848013 -6.984938 3.668114 0.850703 -8.171608 0.000000 0.000000 0.000000 -1.336866 8.312073 17.943874 -81.136113 -4.500247 -19.589509 -145.903742 -76.229200 179.085987 11.037743 -10.219501 -0.474410 11.200074 -10.121312 0.000000 0.000000 0.000000 0.000000 0.000000 0.000000 0.000000 0.889278 -13.963712 4.910001 57.717832 8.455015 19.428870 30.812551 68.292884 0.304152 0.750240 9.402452 0.151183 0.744986 9.406889 0.000000 0.000000 0.000000 0.000000 0.000000 0.000000 0.000000 
